<svg width="24" height="25" viewBox="0 0 24 25" fill="none" xmlns="http://www.w3.org/2000/svg">
<path d="M20.7419 13.545C20.0642 13.725 19.366 13.8161 18.6649 13.816C16.5299 13.816 14.5249 12.986 13.0189 11.48C12.0299 10.4854 11.3189 9.24887 10.9568 7.89381C10.5947 6.53874 10.594 5.11242 10.9549 3.75701C11 3.58755 10.9997 3.40921 10.9541 3.23988C10.9084 3.07056 10.8191 2.91621 10.695 2.79232C10.5709 2.66842 10.4164 2.57934 10.247 2.534C10.0776 2.48866 9.89928 2.48867 9.72988 2.53401C8.03304 2.9862 6.48494 3.87664 5.24088 5.11601C1.34288 9.01401 1.34288 15.359 5.24088 19.259C6.16741 20.1907 7.26952 20.9294 8.48342 21.4323C9.69733 21.9353 10.9989 22.1924 12.3129 22.189C13.6265 22.1927 14.9278 21.9357 16.1414 21.4329C17.355 20.9302 18.4567 20.1916 19.3829 19.26C20.6232 18.0157 21.514 16.4668 21.9659 14.769C22.0108 14.5996 22.0104 14.4214 21.9648 14.2522C21.9192 14.083 21.83 13.9287 21.7061 13.8048C21.5822 13.6809 21.4279 13.5917 21.2587 13.5461C21.0895 13.5005 20.9113 13.5001 20.7419 13.545ZM17.9699 17.846C17.2289 18.5911 16.3474 19.1818 15.3766 19.584C14.4057 19.9862 13.3647 20.1918 12.3139 20.189C11.2627 20.1916 10.2214 19.9858 9.25021 19.5835C8.27904 19.1811 7.39727 18.5903 6.65588 17.845C3.53788 14.726 3.53788 9.65001 6.65588 6.53101C7.25839 5.92918 7.95398 5.42843 8.71588 5.04801C8.60436 6.48707 8.80483 7.93325 9.30361 9.2877C9.80238 10.6422 10.5877 11.873 11.6059 12.896C12.6267 13.9174 13.8571 14.7049 15.2122 15.204C16.5672 15.7032 18.0144 15.9021 19.4539 15.787C19.0714 16.5476 18.5705 17.2426 17.9699 17.846Z" fill="#32475C" fill-opacity="0.87"/>
</svg>
