<svg width="19" height="13" viewBox="0 0 19 13" fill="none" xmlns="http://www.w3.org/2000/svg">
<path d="M9.61067 12.1399C11.649 12.1399 13.3014 10.5468 13.3014 8.58166C13.3014 6.61651 11.649 5.02344 9.61067 5.02344C7.57232 5.02344 5.91992 6.61651 5.91992 8.58166C5.91992 10.5468 7.57232 12.1399 9.61067 12.1399Z" fill="black"/>
<path fill-rule="evenodd" clip-rule="evenodd" d="M18.7554 6.88198C18.7554 6.88198 18.2309 6.37629 17.4407 5.61357C13.116 1.44501 6.10617 1.44501 1.78149 5.61357C0.991232 6.37629 0.466712 6.88198 0.466712 6.88198C0.212268 7.12645 0.212268 7.52497 0.466712 7.76944C0.720288 8.01475 1.13365 8.01475 1.38723 7.76944C1.38723 7.76944 1.91175 7.26375 2.70287 6.50187C6.5178 2.82309 12.7044 2.82309 16.5193 6.50187C17.3104 7.26375 17.8349 7.76944 17.8349 7.76944C18.0885 8.01475 18.5019 8.01475 18.7554 7.76944C19.0099 7.52497 19.0099 7.12645 18.7554 6.88198Z" fill="black"/>
<path fill-rule="evenodd" clip-rule="evenodd" d="M15.5596 1.77241L14.257 3.94753C14.0781 4.24726 14.1849 4.63155 14.4958 4.80486C14.8067 4.97816 15.2062 4.87518 15.386 4.57546L16.6886 2.40034C16.8675 2.09977 16.7606 1.71548 16.4498 1.54218C16.1389 1.36887 15.7394 1.47185 15.5596 1.77241ZM8.95971 0.627922V3.13961C8.95971 3.48622 9.2515 3.76753 9.61102 3.76753C9.97054 3.76753 10.2623 3.48622 10.2623 3.13961V0.627922C10.2623 0.281309 9.97054 0 9.61102 0C9.2515 0 8.95971 0.281309 8.95971 0.627922ZM2.53348 2.40034L3.83609 4.57546C4.01585 4.87518 4.41532 4.97816 4.72621 4.80486C5.0371 4.63155 5.14392 4.24726 4.96503 3.94753L3.66241 1.77241C3.48265 1.47185 3.08318 1.36887 2.77229 1.54218C2.4614 1.71548 2.35458 2.09977 2.53348 2.40034Z" fill="black"/>
</svg>
