<svg width="94" height="47" viewBox="0 0 94 47" fill="none" xmlns="http://www.w3.org/2000/svg">
<rect y="13" width="62" height="22" rx="2" fill="url(#paint0_linear_149_3524)"/>
<path d="M7.095 23.47C7.355 23.47 7.58333 23.4367 7.78 23.37C7.98 23.3033 8.145 23.21 8.275 23.09C8.40833 22.9667 8.50833 22.8183 8.575 22.645C8.64167 22.4717 8.675 22.2783 8.675 22.065C8.675 21.855 8.64167 21.6667 8.575 21.5C8.51167 21.3333 8.415 21.1917 8.285 21.075C8.155 20.9583 7.99 20.87 7.79 20.81C7.59333 20.7467 7.36167 20.715 7.095 20.715H6.025V23.47H7.095ZM7.095 19.8C7.565 19.8 7.97167 19.855 8.315 19.965C8.66167 20.075 8.94667 20.23 9.17 20.43C9.39667 20.6267 9.565 20.865 9.675 21.145C9.785 21.4217 9.84 21.7283 9.84 22.065C9.84 22.4083 9.78167 22.7233 9.665 23.01C9.54833 23.2933 9.375 23.5383 9.145 23.745C8.915 23.9483 8.62833 24.1083 8.285 24.225C7.945 24.3383 7.54833 24.395 7.095 24.395H6.025V27H4.855V19.8H7.095ZM11.6856 22.845C11.8456 22.5217 12.039 22.2683 12.2656 22.085C12.4923 21.8983 12.764 21.805 13.0806 21.805C13.1906 21.805 13.294 21.8183 13.3906 21.845C13.4873 21.8683 13.574 21.905 13.6506 21.955L13.5756 22.765C13.5623 22.8217 13.5406 22.8617 13.5106 22.885C13.484 22.905 13.4473 22.915 13.4006 22.915C13.3506 22.915 13.279 22.9067 13.1856 22.89C13.0923 22.87 12.994 22.86 12.8906 22.86C12.7406 22.86 12.6073 22.8817 12.4906 22.925C12.3773 22.9683 12.274 23.0317 12.1806 23.115C12.0906 23.1983 12.0106 23.3 11.9406 23.42C11.8706 23.54 11.8056 23.6767 11.7456 23.83V27H10.6706V21.9H11.2956C11.409 21.9 11.4873 21.9217 11.5306 21.965C11.574 22.005 11.604 22.0767 11.6206 22.18L11.6856 22.845ZM17.5313 23.875C17.5313 23.695 17.5046 23.5283 17.4513 23.375C17.4013 23.2183 17.3263 23.0833 17.2263 22.97C17.1263 22.8533 17.0013 22.7633 16.8513 22.7C16.7046 22.6333 16.5346 22.6 16.3413 22.6C15.9513 22.6 15.6446 22.7117 15.4213 22.935C15.1979 23.1583 15.0563 23.4717 14.9963 23.875H17.5313ZM14.9663 24.535C14.9796 24.825 15.0246 25.0767 15.1013 25.29C15.1779 25.5 15.2796 25.675 15.4063 25.815C15.5363 25.955 15.6896 26.06 15.8663 26.13C16.0463 26.1967 16.2463 26.23 16.4663 26.23C16.6763 26.23 16.8579 26.2067 17.0113 26.16C17.1646 26.11 17.2979 26.0567 17.4113 26C17.5246 25.94 17.6213 25.8867 17.7013 25.84C17.7813 25.79 17.8546 25.765 17.9213 25.765C18.0079 25.765 18.0746 25.7983 18.1213 25.865L18.4263 26.26C18.2996 26.41 18.1563 26.5367 17.9963 26.64C17.8363 26.7433 17.6663 26.8283 17.4863 26.895C17.3063 26.9583 17.1213 27.0033 16.9313 27.03C16.7413 27.06 16.5563 27.075 16.3763 27.075C16.0229 27.075 15.6946 27.0167 15.3913 26.9C15.0913 26.78 14.8296 26.605 14.6063 26.375C14.3863 26.145 14.2129 25.86 14.0863 25.52C13.9629 25.18 13.9013 24.7883 13.9013 24.345C13.9013 23.9917 13.9563 23.6617 14.0663 23.355C14.1796 23.0483 14.3396 22.7817 14.5463 22.555C14.7563 22.3283 15.0096 22.15 15.3063 22.02C15.6063 21.8867 15.9446 21.82 16.3213 21.82C16.6346 21.82 16.9246 21.8717 17.1913 21.975C17.4579 22.075 17.6879 22.2233 17.8813 22.42C18.0746 22.6167 18.2246 22.8583 18.3313 23.145C18.4413 23.4283 18.4963 23.7517 18.4963 24.115C18.4963 24.2817 18.4779 24.3933 18.4413 24.45C18.4046 24.5067 18.3379 24.535 18.2413 24.535H14.9663ZM19.4988 27V21.9H20.1488C20.2954 21.9 20.3888 21.9683 20.4288 22.105L20.4988 22.55C20.5921 22.4433 20.6888 22.3467 20.7888 22.26C20.8888 22.17 20.9954 22.0933 21.1088 22.03C21.2254 21.9633 21.3488 21.9117 21.4788 21.875C21.6121 21.8383 21.7554 21.82 21.9088 21.82C22.0721 21.82 22.2221 21.8433 22.3588 21.89C22.4954 21.9367 22.6154 22.0033 22.7188 22.09C22.8254 22.1767 22.9171 22.2817 22.9938 22.405C23.0704 22.5283 23.1338 22.6667 23.1838 22.82C23.2604 22.6433 23.3571 22.4917 23.4738 22.365C23.5904 22.2383 23.7204 22.135 23.8638 22.055C24.0071 21.975 24.1588 21.9167 24.3188 21.88C24.4821 21.84 24.6471 21.82 24.8138 21.82C25.0871 21.82 25.3304 21.8633 25.5438 21.95C25.7604 22.0367 25.9421 22.1633 26.0888 22.33C26.2388 22.4933 26.3521 22.695 26.4288 22.935C26.5054 23.175 26.5438 23.4483 26.5438 23.755V27H25.4688V23.755C25.4688 23.395 25.3904 23.125 25.2338 22.945C25.0804 22.7617 24.8521 22.67 24.5488 22.67C24.4121 22.67 24.2838 22.6933 24.1638 22.74C24.0438 22.7867 23.9388 22.855 23.8488 22.945C23.7588 23.035 23.6871 23.1483 23.6338 23.285C23.5838 23.4183 23.5588 23.575 23.5588 23.755V27H22.4838V23.755C22.4838 23.3817 22.4088 23.1083 22.2588 22.935C22.1088 22.7583 21.8888 22.67 21.5987 22.67C21.3988 22.67 21.2138 22.7217 21.0438 22.825C20.8738 22.925 20.7171 23.0633 20.5738 23.24V27H19.4988ZM28.9195 21.9V27H27.8445V21.9H28.9195ZM29.0995 20.36C29.0995 20.4567 29.0795 20.5483 29.0395 20.635C29.0029 20.7217 28.9512 20.7983 28.8845 20.865C28.8179 20.9283 28.7395 20.98 28.6495 21.02C28.5629 21.0567 28.4695 21.075 28.3695 21.075C28.2729 21.075 28.1812 21.0567 28.0945 21.02C28.0112 20.98 27.9379 20.9283 27.8745 20.865C27.8112 20.7983 27.7595 20.7217 27.7195 20.635C27.6829 20.5483 27.6645 20.4567 27.6645 20.36C27.6645 20.26 27.6829 20.1667 27.7195 20.08C27.7595 19.9933 27.8112 19.9183 27.8745 19.855C27.9379 19.7883 28.0112 19.7367 28.0945 19.7C28.1812 19.66 28.2729 19.64 28.3695 19.64C28.4695 19.64 28.5629 19.66 28.6495 19.7C28.7395 19.7367 28.8179 19.7883 28.8845 19.855C28.9512 19.9183 29.0029 19.9933 29.0395 20.08C29.0795 20.1667 29.0995 20.26 29.0995 20.36ZM34.5702 21.9V27H33.9202C33.7769 27 33.6852 26.9317 33.6452 26.795L33.5652 26.32C33.4586 26.4333 33.3452 26.5367 33.2252 26.63C33.1086 26.7233 32.9836 26.8033 32.8502 26.87C32.7169 26.9367 32.5736 26.9883 32.4202 27.025C32.2702 27.0617 32.1086 27.08 31.9352 27.08C31.6552 27.08 31.4086 27.0333 31.1952 26.94C30.9819 26.8467 30.8019 26.715 30.6552 26.545C30.5119 26.375 30.4036 26.1717 30.3302 25.935C30.2569 25.695 30.2202 25.4317 30.2202 25.145V21.9H31.2952V25.145C31.2952 25.4883 31.3736 25.755 31.5302 25.945C31.6902 26.135 31.9319 26.23 32.2552 26.23C32.4919 26.23 32.7119 26.1767 32.9152 26.07C33.1219 25.96 33.3152 25.81 33.4952 25.62V21.9H34.5702ZM35.8757 27V21.9H36.5257C36.6724 21.9 36.7657 21.9683 36.8057 22.105L36.8757 22.55C36.969 22.4433 37.0657 22.3467 37.1657 22.26C37.2657 22.17 37.3724 22.0933 37.4857 22.03C37.6024 21.9633 37.7257 21.9117 37.8557 21.875C37.989 21.8383 38.1324 21.82 38.2857 21.82C38.449 21.82 38.599 21.8433 38.7357 21.89C38.8724 21.9367 38.9924 22.0033 39.0957 22.09C39.2024 22.1767 39.294 22.2817 39.3707 22.405C39.4474 22.5283 39.5107 22.6667 39.5607 22.82C39.6374 22.6433 39.734 22.4917 39.8507 22.365C39.9674 22.2383 40.0974 22.135 40.2407 22.055C40.384 21.975 40.5357 21.9167 40.6957 21.88C40.859 21.84 41.024 21.82 41.1907 21.82C41.464 21.82 41.7074 21.8633 41.9207 21.95C42.1374 22.0367 42.319 22.1633 42.4657 22.33C42.6157 22.4933 42.729 22.695 42.8057 22.935C42.8824 23.175 42.9207 23.4483 42.9207 23.755V27H41.8457V23.755C41.8457 23.395 41.7674 23.125 41.6107 22.945C41.4574 22.7617 41.229 22.67 40.9257 22.67C40.789 22.67 40.6607 22.6933 40.5407 22.74C40.4207 22.7867 40.3157 22.855 40.2257 22.945C40.1357 23.035 40.064 23.1483 40.0107 23.285C39.9607 23.4183 39.9357 23.575 39.9357 23.755V27H38.8607V23.755C38.8607 23.3817 38.7857 23.1083 38.6357 22.935C38.4857 22.7583 38.2657 22.67 37.9757 22.67C37.7757 22.67 37.5907 22.7217 37.4207 22.825C37.2507 22.925 37.094 23.0633 36.9507 23.24V27H35.8757Z" fill="url(#paint1_linear_149_3524)"/>
<circle cx="70.5" cy="23.5" r="22.5" fill="black" stroke="url(#paint2_linear_149_3524)" stroke-width="2"/>
<circle cx="70.1084" cy="23.1084" r="17.625" fill="url(#paint3_linear_149_3524)"/>
<ellipse cx="70.108" cy="22.6319" rx="14.7669" ry="14.2905" fill="#02026F"/>
<path d="M81.5363 15.8679C82.8079 15.3068 81.3331 17.8803 79.7221 24.5375L61.5379 24.5375C60.7325 22.0411 59.3433 17.1203 59.1617 16.4871C59.0007 15.9261 60.976 17.1064 60.976 17.1064L65.5653 19.5446C66.6393 17.8803 68.9483 14.2189 69.5927 12.8875C70.2371 11.5561 70.9352 12.3327 71.2037 12.8875L76.0937 19.5834C77.3032 18.9642 80.3527 16.3901 81.5363 15.8679Z" fill="url(#paint4_linear_149_3524)" stroke="black" stroke-width="0.4"/>
<path d="M62.5451 29.1008C61.4356 29.1008 60.6216 28.0581 60.8906 26.9818C61.0804 26.2226 61.7626 25.69 62.5451 25.69H78.6238C79.7333 25.69 80.5474 26.7327 80.2783 27.809C80.0885 28.5682 79.4064 29.1008 78.6238 29.1008H62.5451Z" fill="url(#paint5_linear_149_3524)" stroke="black" stroke-width="0.4"/>
<defs>
<linearGradient id="paint0_linear_149_3524" x1="31" y1="13" x2="31" y2="35" gradientUnits="userSpaceOnUse">
<stop stop-color="#FFD700"/>
<stop offset="1" stop-color="#FDBB12"/>
</linearGradient>
<linearGradient id="paint1_linear_149_3524" x1="24" y1="17" x2="24" y2="29" gradientUnits="userSpaceOnUse">
<stop stop-color="#0707B4"/>
<stop offset="1" stop-color="#020242"/>
</linearGradient>
<linearGradient id="paint2_linear_149_3524" x1="70.5" y1="0" x2="70.5" y2="47" gradientUnits="userSpaceOnUse">
<stop stop-color="#FFD700"/>
<stop offset="1" stop-color="#FDBB12"/>
</linearGradient>
<linearGradient id="paint3_linear_149_3524" x1="70.1084" y1="5.4834" x2="70.1084" y2="40.7334" gradientUnits="userSpaceOnUse">
<stop stop-color="#FFD700"/>
<stop offset="1" stop-color="#FDBB12"/>
</linearGradient>
<linearGradient id="paint4_linear_149_3524" x1="70.5848" y1="12.1523" x2="70.5848" y2="24.5375" gradientUnits="userSpaceOnUse">
<stop stop-color="#FFD700"/>
<stop offset="1" stop-color="#FDBB12"/>
</linearGradient>
<linearGradient id="paint5_linear_149_3524" x1="70.5845" y1="25.49" x2="70.5845" y2="29.3008" gradientUnits="userSpaceOnUse">
<stop stop-color="#FFD700"/>
<stop offset="1" stop-color="#FDBB12"/>
</linearGradient>
</defs>
</svg>
