<svg width="21" height="22" viewBox="0 0 21 22" fill="none" xmlns="http://www.w3.org/2000/svg">
<path d="M8.82219 18.6083C9.6681 18.6081 10.5032 18.4791 11.3021 18.2304C13.0311 17.6919 15.0691 17.7265 16.3304 19.0259L18.0606 20.8085C18.4905 21.2514 19.2014 21.2514 19.6312 20.8085C20.0434 20.3839 20.0434 19.7086 19.6312 19.284L17.8563 17.4554C16.5758 16.1361 16.5406 14.0864 17.0688 12.3254C17.3205 11.4866 17.451 10.6083 17.4513 9.71833C17.4513 4.81663 13.58 0.828369 8.82219 0.828369C4.06433 0.828369 0.193115 4.81663 0.193115 9.71833C0.193115 14.62 4.06433 18.6083 8.82219 18.6083ZM8.82219 3.05086C12.3914 3.05086 15.294 6.04122 15.294 9.71833C15.294 13.3954 12.3914 16.3858 8.82219 16.3858C5.25299 16.3858 2.35038 13.3954 2.35038 9.71833C2.35038 6.04122 5.25299 3.05086 8.82219 3.05086Z" fill="#32475C" fill-opacity="0.54"/>
<path d="M10.4135 8.06875C10.6047 8.34101 10.7491 8.66102 10.8407 9.00911C10.9707 9.50277 11.3705 9.92361 11.8809 9.92361V9.92361C12.391 9.92361 12.8109 9.50884 12.7476 9.00273C12.701 8.63042 12.626 8.26551 12.5234 7.91459C12.3373 7.27784 12.0641 6.6998 11.7197 6.21388C10.4721 4.44461 8.40786 4.25359 6.98459 5.6408C6.66161 5.9556 6.67141 6.46007 6.9306 6.82917V6.82917C7.35555 7.43433 8.32434 7.35178 9.06339 7.32705C9.55626 7.31055 10.053 7.55827 10.4135 8.06875Z" fill="#32475C" fill-opacity="0.54"/>
</svg>
