<svg width="30" height="30" viewBox="0 0 30 30" fill="none" xmlns="http://www.w3.org/2000/svg">
<circle cx="15" cy="15" r="15" fill="url(#paint0_linear_447_1655)"/>
<path d="M15.5 5C13.6211 5 11.7844 5.55717 10.2221 6.60104C8.65982 7.64491 7.44218 9.12861 6.72315 10.8645C6.00412 12.6004 5.81598 14.5105 6.18254 16.3534C6.5491 18.1962 7.45389 19.8889 8.78249 21.2175C10.1111 22.5461 11.8038 23.4509 13.6466 23.8175C15.4895 24.184 17.3996 23.9959 19.1355 23.2769C20.8714 22.5578 22.3551 21.3402 23.399 19.7779C24.4428 18.2156 25 16.3789 25 14.5C25 11.9804 23.9991 9.56408 22.2175 7.78249C20.4359 6.00089 18.0196 5 15.5 5ZM18.0848 17.8725C18.3185 18.0501 18.4725 18.3128 18.5132 18.6035C18.554 18.8941 18.4783 19.1891 18.3025 19.4242C18.197 19.5585 18.0624 19.6672 17.9088 19.7419C17.7552 19.8166 17.5866 19.8555 17.4158 19.8556C17.1773 19.8596 16.9439 19.786 16.7508 19.6458L11.1458 15.3787C11.0105 15.2757 10.9007 15.1428 10.8252 14.9904C10.7497 14.8379 10.7104 14.6701 10.7104 14.5C10.7104 14.3299 10.7497 14.1621 10.8252 14.0096C10.9007 13.8572 11.0105 13.7243 11.1458 13.6212L16.7508 9.35417C16.9844 9.17727 17.2787 9.10041 17.569 9.1405C17.8592 9.18059 18.1216 9.33433 18.2985 9.56792C18.4754 9.8015 18.5523 10.0958 18.5122 10.386C18.4721 10.6763 18.3184 10.9387 18.0848 11.1156L13.6396 14.5L18.0848 17.8725Z" fill="url(#paint1_linear_447_1655)"/>
<defs>
<linearGradient id="paint0_linear_447_1655" x1="15" y1="0" x2="15" y2="30" gradientUnits="userSpaceOnUse">
<stop stop-color="#0707B4"/>
<stop offset="1" stop-color="#020242"/>
</linearGradient>
<linearGradient id="paint1_linear_447_1655" x1="15.5" y1="5" x2="15.5" y2="24" gradientUnits="userSpaceOnUse">
<stop stop-color="#FFD700"/>
<stop offset="1" stop-color="#FDBB12"/>
</linearGradient>
</defs>
</svg>
